<svg height="734" width="720" xmlns="http://www.w3.org/2000/svg">
<rect height="734" fill="#555" width="720"></rect>
<text fill="#7f7" font-family="Courier New" font-size="12" xml:space="preserve">
<tspan x="10" y="26">10 megabytes installed</tspan>
<tspan x="10" y="42"></tspan>
<tspan x="10" y="58">node_modules</tspan>
<tspan x="10" y="74">└─┬ npm-gui@0.3.1 </tspan>
<tspan x="10" y="90">  └─┬ nsp@2.6.3 </tspan>
<tspan x="10" y="106">    ├─┬ chalk@1.1.3 </tspan>
<tspan x="10" y="122">    │ ├── ansi-styles@2.2.1 </tspan>
<tspan x="10" y="138">    │ ├── escape-string-regexp@1.0.5 </tspan>
<tspan x="10" y="154">    │ ├─┬ has-ansi@2.0.0 </tspan>
<tspan x="10" y="170">    │ │ └── ansi-regex@2.0.0 </tspan>
<tspan x="10" y="186">    │ ├─┬ strip-ansi@3.0.1 </tspan>
<tspan x="10" y="202">    │ │ └── ansi-regex@2.0.0 </tspan>
<tspan x="10" y="218">    │ └── supports-color@2.0.0 </tspan>
<tspan x="10" y="234">    ├─┬ cli-table@0.3.1 </tspan>
<tspan x="10" y="250">    │ └── colors@1.0.3 </tspan>
<tspan x="10" y="266">    ├── cvss@1.0.1 </tspan>
<tspan x="10" y="282">    ├─┬ https-proxy-agent@1.0.0 </tspan>
<tspan x="10" y="298">    │ ├─┬ agent-base@2.0.1 </tspan>
<tspan x="10" y="314">    │ │ └── semver@5.0.3 </tspan>
<tspan x="10" y="330">    │ ├─┬ debug@2.2.0 </tspan>
<tspan x="10" y="346">    │ │ └── ms@0.7.1 </tspan>
<tspan x="10" y="362">    │ └── extend@3.0.0 </tspan>
<tspan x="10" y="378">    ├─┬ joi@6.10.1 </tspan>
<tspan x="10" y="394">    │ ├── hoek@2.16.3 </tspan>
<tspan x="10" y="410">    │ ├── isemail@1.2.0 </tspan>
<tspan x="10" y="426">    │ ├── moment@2.12.0 </tspan>
<tspan x="10" y="442">    │ └── topo@1.1.0 </tspan>
<tspan x="10" y="458">    ├── nodesecurity-npm-utils@5.0.0 </tspan>
<tspan x="10" y="474">    ├── path-is-absolute@1.0.0 </tspan>
<tspan x="10" y="490">    ├─┬ rc@1.1.6 </tspan>
<tspan x="10" y="506">    │ ├── deep-extend@0.4.1 </tspan>
<tspan x="10" y="522">    │ ├── ini@1.3.4 </tspan>
<tspan x="10" y="538">    │ ├── minimist@1.2.0 </tspan>
<tspan x="10" y="554">    │ └── strip-json-comments@1.0.4 </tspan>
<tspan x="10" y="570">    ├── semver@5.1.0 </tspan>
<tspan x="10" y="586">    ├─┬ subcommand@2.0.3 </tspan>
<tspan x="10" y="602">    │ ├── cliclopts@1.1.1 </tspan>
<tspan x="10" y="618">    │ ├─┬ debug@2.2.0 </tspan>
<tspan x="10" y="634">    │ │ └── ms@0.7.1 </tspan>
<tspan x="10" y="650">    │ ├── minimist@1.2.0 </tspan>
<tspan x="10" y="666">    │ └── xtend@4.0.1 </tspan>
<tspan x="10" y="682">    └─┬ wreck@6.3.0 </tspan>
<tspan x="10" y="698">      ├── boom@2.10.1 </tspan>
<tspan x="10" y="714">      └── hoek@2.16.3</tspan>
</text>
</svg>
